<svg width="160" height="85" viewBox="0 0 160 85" fill="none" xmlns="http://www.w3.org/2000/svg">
<path fill-rule="evenodd" clip-rule="evenodd" d="M13.7822 13.8174H54.1119V26.7935H28.8566V71.2598H13.7822V13.8174Z" fill="#BF1E2E"/>
<path fill-rule="evenodd" clip-rule="evenodd" d="M44.8779 58.4422H62.3989C62.3989 47.8926 62.3989 39.9774 62.3989 29.4278C62.0982 20.9047 68.1533 13.6458 78.2858 13.8174H146.136V26.7935H115.013C108.494 26.7935 106.14 28.8556 106.043 35.4259V48.4081C106.043 56.3869 107.751 58.9657 115.43 58.4422H146.136V71.2599H110.868C101.492 71.4048 91.1685 66.7841 90.6532 52.2206V26.7935H83.4794C79.6794 26.6497 77.0932 28.2271 76.9207 33.2294V54.5944C76.4634 64.596 72.1975 71.528 60.9793 71.2599H44.8779V58.4422Z" fill="#BF1E2E"/>
</svg>
